<?xml version="1.0" standalone="no"?>
<!DOCTYPE svg PUBLIC "-//W3C//DTD SVG 20010904//EN"
 "http://www.w3.org/TR/2001/REC-SVG-20010904/DTD/svg10.dtd">
<svg version="1.0" xmlns="http://www.w3.org/2000/svg"
 width="512.000000pt" height="512.000000pt" viewBox="0 0 512.000000 512.000000"
 preserveAspectRatio="xMidYMid meet">

<g transform="translate(0.000000,512.000000) scale(0.100000,-0.100000)"
fill="#000000" stroke="none">
<path d="M2790 3178 c0 -1135 -4 -1724 -11 -1767 -54 -338 -336 -591 -674
-608 -350 -19 -660 203 -751 538 -27 99 -25 273 5 369 78 254 277 445 526 506
89 22 258 23 343 2 l62 -15 0 399 c0 370 -1 399 -17 406 -10 4 -110 7 -223 7
-173 -1 -220 -4 -302 -22 -287 -65 -534 -194 -735 -386 -184 -176 -310 -370
-391 -598 -61 -174 -77 -273 -77 -489 0 -147 5 -217 18 -283 80 -397 314 -744
652 -969 526 -349 1222 -338 1738 29 105 74 276 245 350 350 115 162 200 353
249 559 l23 99 -3 993 -2 993 52 -39 c212 -154 497 -280 766 -336 107 -23 300
-46 380 -46 l32 0 0 390 c0 215 -2 390 -4 390 -62 0 -237 28 -316 51 -235 68
-403 169 -570 346 -90 94 -162 198 -211 301 -67 140 -119 338 -119 452 0 87
36 80 -401 80 l-389 0 0 -1702z"/>
</g>
</svg>
